<svg xmlns="http://www.w3.org/2000/svg">
    <symbol id="telegram" viewBox="0 0 256 256">
    <path d="M228.646,34.7676a11.96514,11.96514,0,0,0-12.21778-2.0752L31.87109,105.19729a11.99915,11.99915,0,0,0,2.03467,22.93457L84,138.15139v61.833a11.8137,11.8137,0,0,0,7.40771,11.08593,12.17148,12.17148,0,0,0,4.66846.94434,11.83219,11.83219,0,0,0,8.40918-3.5459l28.59619-28.59619L175.2749,217.003a11.89844,11.89844,0,0,0,7.88819,3.00195,12.112,12.112,0,0,0,3.72265-.59082,11.89762,11.89762,0,0,0,8.01319-8.73925L232.5127,46.542A11.97177,11.97177,0,0,0,228.646,34.7676ZM32.2749,116.71877a3.86572,3.86572,0,0,1,2.522-4.07617L203.97217,46.18044,87.07227,130.60769,35.47461,120.28811A3.86618,3.86618,0,0,1,32.2749,116.71877Zm66.55322,86.09375A3.99976,3.99976,0,0,1,92,199.9844V143.72048l35.064,30.85669ZM224.71484,44.7549,187.10107,208.88772a4.0003,4.0003,0,0,1-6.5415,2.10937l-86.1543-75.8164,129.66309-93.645A3.80732,3.80732,0,0,1,224.71484,44.7549Z"/>
    </symbol>
    <symbol id="mail" viewBox="0 0 256 256">
    <path d="M227.97314,55.7334a4.0173,4.0173,0,0,0-.04345-.43262c-.02246-.12671-.0586-.24707-.09229-.36914a3.84786,3.84786,0,0,0-.11719-.37744,3.91559,3.91559,0,0,0-.17236-.36475c-.05664-.11084-.11035-.22143-.17773-.32763a4.0245,4.0245,0,0,0-.26416-.35376c-.05518-.0691-.09717-.145-.15772-.21119-.01953-.021-.043-.03515-.0625-.05566a3.9161,3.9161,0,0,0-.33447-.29809c-.08789-.07374-.17188-.15357-.26465-.21851a3.9445,3.9445,0,0,0-.35547-.207c-.10693-.05933-.20947-.12525-.32031-.17407-.11963-.05274-.24707-.08692-.37207-.12793-.12207-.0398-.24121-.0857-.36572-.11353-.11719-.02612-.23926-.03467-.35987-.05029a3.90931,3.90931,0,0,0-.42675-.043C224.05713,52.00806,224.02979,52,224,52H32c-.0293,0-.05566.00781-.085.00854a4.05618,4.05618,0,0,0-.44385.04468c-.11426.01538-.23.0232-.34082.04785a4.00391,4.00391,0,0,0-.39355.12207c-.11524.03858-.2334.06983-.34375.11841-.11914.05225-.23.12281-.34473.187-.11182.06324-.227.12037-.33252.1941-.09619.06738-.18359.1499-.2749.2268a4.104,4.104,0,0,0-.32666.29126c-.01953.02075-.043.03491-.0625.05615-.06055.06617-.10254.14209-.15772.21119a4.02082,4.02082,0,0,0-.26416.35351c-.06738.10669-.12158.21753-.17822.32837-.061.11963-.12256.23779-.17187.364-.04786.12427-.082.25074-.11719.37818-.03369.12207-.06983.24219-.09229.36865a4.0173,4.0173,0,0,0-.04345.43262C28.021,55.82324,28,55.90869,28,56V192a12.01343,12.01343,0,0,0,12,12H216a12.01343,12.01343,0,0,0,12-12V56C228,55.90869,227.979,55.82324,227.97314,55.7334ZM213.71631,60,128,138.57373,42.28369,60ZM216,196H40a4.00427,4.00427,0,0,1-4-4V65.09326l89.29688,81.85547a4.00089,4.00089,0,0,0,5.40624,0L220,65.09326V192A4.00427,4.00427,0,0,1,216,196Z"/>
    </symbol>
</svg>
